<mxfile host="app.diagrams.net" agent="Mozilla/5.0 (X11; Linux x86_64) AppleWebKit/537.36 (KHTML, like Gecko) Chrome/134.0.0.0 Safari/537.36 OPR/119.0.0.0" version="27.1.6">
  <diagram id="EDmHR_g1la7P6RcFaaBi" name="Pagina-1">
    <mxGraphModel dx="2287" dy="1240" grid="1" gridSize="10" guides="1" tooltips="1" connect="1" arrows="1" fold="1" page="0" pageScale="1" pageWidth="827" pageHeight="1169" math="0" shadow="0">
      <root>
        <mxCell id="0" />
        <mxCell id="1" parent="0" />
        <mxCell id="TbW7v7ZcEK5JP2u3PYIR-22" value="" style="rounded=1;whiteSpace=wrap;html=1;strokeWidth=1;perimeterSpacing=2;sketch=1;curveFitting=1;jiggle=2;fillColor=#647687;fontColor=#ffffff;strokeColor=#314354;glass=0;" vertex="1" parent="1">
          <mxGeometry x="350" y="250" width="1030" height="1250" as="geometry" />
        </mxCell>
        <mxCell id="ej3CaOeuSr0K_tqCnYNM-1" value="" style="edgeStyle=none;curved=1;rounded=0;orthogonalLoop=1;jettySize=auto;html=1;fontSize=12;startSize=8;endSize=8;" parent="1" source="ej3CaOeuSr0K_tqCnYNM-3" target="ej3CaOeuSr0K_tqCnYNM-55" edge="1">
          <mxGeometry relative="1" as="geometry" />
        </mxCell>
        <mxCell id="ej3CaOeuSr0K_tqCnYNM-2" value="ARGUMENTS: FILENAME" style="edgeLabel;html=1;align=center;verticalAlign=middle;resizable=0;points=[];fontSize=12;" parent="ej3CaOeuSr0K_tqCnYNM-1" vertex="1" connectable="0">
          <mxGeometry x="-0.2137" y="1" relative="1" as="geometry">
            <mxPoint as="offset" />
          </mxGeometry>
        </mxCell>
        <mxCell id="ej3CaOeuSr0K_tqCnYNM-3" value="&lt;font style=&quot;font-size: 30px;&quot;&gt;START&lt;/font&gt;" style="strokeWidth=2;html=1;shape=mxgraph.flowchart.start_1;whiteSpace=wrap;" parent="1" vertex="1">
          <mxGeometry x="610" y="340" width="240" height="120" as="geometry" />
        </mxCell>
        <mxCell id="ej3CaOeuSr0K_tqCnYNM-4" value="" style="image;aspect=fixed;html=1;points=[];align=center;fontSize=12;image=img/lib/azure2/general/File.svg;" parent="1" vertex="1">
          <mxGeometry x="825.72" y="450" width="49.28" height="60.72" as="geometry" />
        </mxCell>
        <mxCell id="ej3CaOeuSr0K_tqCnYNM-5" value="" style="edgeStyle=none;curved=1;rounded=0;orthogonalLoop=1;jettySize=auto;html=1;fontSize=12;startSize=8;endSize=8;exitX=1;exitY=0.5;exitDx=0;exitDy=0;" parent="1" source="ej3CaOeuSr0K_tqCnYNM-6" target="ej3CaOeuSr0K_tqCnYNM-8" edge="1">
          <mxGeometry relative="1" as="geometry">
            <mxPoint x="820" y="700" as="sourcePoint" />
          </mxGeometry>
        </mxCell>
        <mxCell id="ej3CaOeuSr0K_tqCnYNM-6" value="PARSE FILE" style="rounded=1;whiteSpace=wrap;html=1;absoluteArcSize=1;arcSize=14;strokeWidth=2;" parent="1" vertex="1">
          <mxGeometry x="690" y="650" width="80" height="80" as="geometry" />
        </mxCell>
        <mxCell id="ej3CaOeuSr0K_tqCnYNM-7" style="edgeStyle=none;curved=1;rounded=0;orthogonalLoop=1;jettySize=auto;html=1;exitX=1;exitY=0.5;exitDx=0;exitDy=0;fontSize=12;startSize=8;endSize=8;entryX=1;entryY=0.5;entryDx=0;entryDy=0;" parent="1" source="ej3CaOeuSr0K_tqCnYNM-8" target="ej3CaOeuSr0K_tqCnYNM-10" edge="1">
          <mxGeometry relative="1" as="geometry">
            <mxPoint x="1210" y="700.0588235294117" as="targetPoint" />
            <Array as="points">
              <mxPoint x="1200" y="700" />
              <mxPoint x="1200" y="800" />
              <mxPoint x="1200" y="920" />
            </Array>
          </mxGeometry>
        </mxCell>
        <mxCell id="ej3CaOeuSr0K_tqCnYNM-8" value="READ LINE" style="whiteSpace=wrap;html=1;rounded=1;absoluteArcSize=1;arcSize=14;strokeWidth=2;" parent="1" vertex="1">
          <mxGeometry x="1070" y="650" width="80" height="80" as="geometry" />
        </mxCell>
        <mxCell id="ej3CaOeuSr0K_tqCnYNM-9" value="" style="edgeStyle=none;curved=1;rounded=0;orthogonalLoop=1;jettySize=auto;html=1;fontSize=12;startSize=8;endSize=8;entryX=1;entryY=0.5;entryDx=0;entryDy=0;" parent="1" source="ej3CaOeuSr0K_tqCnYNM-10" target="ej3CaOeuSr0K_tqCnYNM-19" edge="1">
          <mxGeometry relative="1" as="geometry">
            <mxPoint x="999.9999999999998" y="920" as="targetPoint" />
          </mxGeometry>
        </mxCell>
        <mxCell id="ej3CaOeuSr0K_tqCnYNM-10" value="PARSE&lt;div&gt;FILE&lt;/div&gt;&lt;div&gt;LINE&lt;/div&gt;" style="whiteSpace=wrap;html=1;rounded=1;absoluteArcSize=1;arcSize=14;strokeWidth=2;" parent="1" vertex="1">
          <mxGeometry x="1070" y="880" width="80" height="80" as="geometry" />
        </mxCell>
        <mxCell id="ej3CaOeuSr0K_tqCnYNM-11" style="edgeStyle=none;curved=1;rounded=0;orthogonalLoop=1;jettySize=auto;html=1;fontSize=12;startSize=8;endSize=8;entryX=0.5;entryY=1;entryDx=0;entryDy=0;" parent="1" source="ej3CaOeuSr0K_tqCnYNM-19" target="ej3CaOeuSr0K_tqCnYNM-22" edge="1">
          <mxGeometry relative="1" as="geometry">
            <mxPoint x="930" y="820" as="targetPoint" />
          </mxGeometry>
        </mxCell>
        <mxCell id="ej3CaOeuSr0K_tqCnYNM-12" value="CORRECT LINE" style="edgeLabel;html=1;align=center;verticalAlign=middle;resizable=0;points=[];fontSize=12;" parent="ej3CaOeuSr0K_tqCnYNM-11" vertex="1" connectable="0">
          <mxGeometry x="-0.1318" relative="1" as="geometry">
            <mxPoint y="-1" as="offset" />
          </mxGeometry>
        </mxCell>
        <mxCell id="ej3CaOeuSr0K_tqCnYNM-13" style="edgeStyle=none;curved=1;rounded=0;orthogonalLoop=1;jettySize=auto;html=1;fontSize=12;startSize=8;endSize=8;entryX=1;entryY=0.5;entryDx=0;entryDy=0;" parent="1" source="ej3CaOeuSr0K_tqCnYNM-19" target="ej3CaOeuSr0K_tqCnYNM-24" edge="1">
          <mxGeometry relative="1" as="geometry">
            <mxPoint x="770" y="920" as="targetPoint" />
          </mxGeometry>
        </mxCell>
        <mxCell id="ej3CaOeuSr0K_tqCnYNM-14" value="END OF FILE&lt;div&gt;OR&lt;/div&gt;&lt;div&gt;1K ENTRIES&lt;/div&gt;" style="edgeLabel;html=1;align=center;verticalAlign=middle;resizable=0;points=[];fontSize=12;" parent="ej3CaOeuSr0K_tqCnYNM-13" vertex="1" connectable="0">
          <mxGeometry x="-0.1686" y="2" relative="1" as="geometry">
            <mxPoint x="-2" y="-32" as="offset" />
          </mxGeometry>
        </mxCell>
        <mxCell id="ej3CaOeuSr0K_tqCnYNM-15" value="" style="edgeStyle=none;curved=1;rounded=0;orthogonalLoop=1;jettySize=auto;html=1;fontSize=12;startSize=8;endSize=8;" parent="1" source="ej3CaOeuSr0K_tqCnYNM-19" target="ej3CaOeuSr0K_tqCnYNM-20" edge="1">
          <mxGeometry relative="1" as="geometry" />
        </mxCell>
        <mxCell id="ej3CaOeuSr0K_tqCnYNM-16" value="SOMETHING FAILED" style="edgeLabel;html=1;align=center;verticalAlign=middle;resizable=0;points=[];fontSize=12;" parent="ej3CaOeuSr0K_tqCnYNM-15" vertex="1" connectable="0">
          <mxGeometry x="-0.2918" y="-1" relative="1" as="geometry">
            <mxPoint as="offset" />
          </mxGeometry>
        </mxCell>
        <mxCell id="ej3CaOeuSr0K_tqCnYNM-17" style="edgeStyle=none;curved=1;rounded=0;orthogonalLoop=1;jettySize=auto;html=1;exitX=1;exitY=0;exitDx=0;exitDy=0;fontSize=12;startSize=8;endSize=8;entryX=0.5;entryY=1;entryDx=0;entryDy=0;" parent="1" source="ej3CaOeuSr0K_tqCnYNM-19" target="ej3CaOeuSr0K_tqCnYNM-8" edge="1">
          <mxGeometry relative="1" as="geometry">
            <mxPoint x="1060" y="770" as="targetPoint" />
          </mxGeometry>
        </mxCell>
        <mxCell id="ej3CaOeuSr0K_tqCnYNM-18" value="INCORRECT LINE" style="edgeLabel;html=1;align=center;verticalAlign=middle;resizable=0;points=[];fontSize=12;" parent="ej3CaOeuSr0K_tqCnYNM-17" vertex="1" connectable="0">
          <mxGeometry x="-0.1201" y="-1" relative="1" as="geometry">
            <mxPoint x="45" y="-42" as="offset" />
          </mxGeometry>
        </mxCell>
        <mxCell id="ej3CaOeuSr0K_tqCnYNM-19" value="CHECK&lt;div&gt;AFTER&lt;/div&gt;&lt;div&gt;PARSE&lt;/div&gt;" style="rhombus;whiteSpace=wrap;html=1;rounded=1;absoluteArcSize=1;arcSize=14;strokeWidth=2;" parent="1" vertex="1">
          <mxGeometry x="880" y="870" width="100" height="100" as="geometry" />
        </mxCell>
        <mxCell id="ej3CaOeuSr0K_tqCnYNM-20" value="EXIT" style="whiteSpace=wrap;html=1;rounded=1;absoluteArcSize=1;arcSize=14;strokeWidth=2;" parent="1" vertex="1">
          <mxGeometry x="890" y="1020" width="80" height="80" as="geometry" />
        </mxCell>
        <mxCell id="ej3CaOeuSr0K_tqCnYNM-21" style="edgeStyle=none;curved=1;rounded=0;orthogonalLoop=1;jettySize=auto;html=1;fontSize=12;startSize=8;endSize=8;" parent="1" source="ej3CaOeuSr0K_tqCnYNM-22" edge="1">
          <mxGeometry relative="1" as="geometry">
            <mxPoint x="930" y="690" as="targetPoint" />
          </mxGeometry>
        </mxCell>
        <mxCell id="ej3CaOeuSr0K_tqCnYNM-22" value="INSERT LINE" style="whiteSpace=wrap;html=1;rounded=1;absoluteArcSize=1;arcSize=14;strokeWidth=2;" parent="1" vertex="1">
          <mxGeometry x="875" y="750" width="110" height="60" as="geometry" />
        </mxCell>
        <mxCell id="ej3CaOeuSr0K_tqCnYNM-23" value="" style="edgeStyle=none;curved=1;rounded=0;orthogonalLoop=1;jettySize=auto;html=1;fontSize=12;startSize=8;endSize=8;" parent="1" source="ej3CaOeuSr0K_tqCnYNM-24" target="ej3CaOeuSr0K_tqCnYNM-31" edge="1">
          <mxGeometry relative="1" as="geometry" />
        </mxCell>
        <mxCell id="ej3CaOeuSr0K_tqCnYNM-24" value="MAIN LOOP" style="rounded=1;whiteSpace=wrap;html=1;absoluteArcSize=1;arcSize=14;strokeWidth=2;" parent="1" vertex="1">
          <mxGeometry x="690" y="880" width="80" height="80" as="geometry" />
        </mxCell>
        <mxCell id="ej3CaOeuSr0K_tqCnYNM-25" value="" style="edgeStyle=none;curved=1;rounded=0;orthogonalLoop=1;jettySize=auto;html=1;fontSize=12;startSize=8;endSize=8;" parent="1" source="ej3CaOeuSr0K_tqCnYNM-31" target="ej3CaOeuSr0K_tqCnYNM-33" edge="1">
          <mxGeometry relative="1" as="geometry" />
        </mxCell>
        <mxCell id="ej3CaOeuSr0K_tqCnYNM-26" value="IF SEARCH" style="edgeLabel;html=1;align=center;verticalAlign=middle;resizable=0;points=[];fontSize=12;" parent="ej3CaOeuSr0K_tqCnYNM-25" vertex="1" connectable="0">
          <mxGeometry x="0.0561" y="-2" relative="1" as="geometry">
            <mxPoint x="-14" y="-17" as="offset" />
          </mxGeometry>
        </mxCell>
        <mxCell id="ej3CaOeuSr0K_tqCnYNM-27" value="" style="edgeStyle=none;curved=1;rounded=0;orthogonalLoop=1;jettySize=auto;html=1;fontSize=12;startSize=8;endSize=8;" parent="1" source="ej3CaOeuSr0K_tqCnYNM-31" target="ej3CaOeuSr0K_tqCnYNM-34" edge="1">
          <mxGeometry relative="1" as="geometry" />
        </mxCell>
        <mxCell id="ej3CaOeuSr0K_tqCnYNM-28" value="IF EXIT" style="edgeLabel;html=1;align=center;verticalAlign=middle;resizable=0;points=[];fontSize=12;" parent="ej3CaOeuSr0K_tqCnYNM-27" vertex="1" connectable="0">
          <mxGeometry x="-0.0102" y="2" relative="1" as="geometry">
            <mxPoint x="15" y="-15" as="offset" />
          </mxGeometry>
        </mxCell>
        <mxCell id="ej3CaOeuSr0K_tqCnYNM-29" value="" style="edgeStyle=none;curved=1;rounded=0;orthogonalLoop=1;jettySize=auto;html=1;fontSize=12;startSize=8;endSize=8;" parent="1" source="ej3CaOeuSr0K_tqCnYNM-31" target="ej3CaOeuSr0K_tqCnYNM-47" edge="1">
          <mxGeometry relative="1" as="geometry" />
        </mxCell>
        <mxCell id="ej3CaOeuSr0K_tqCnYNM-30" value="ELSE" style="edgeLabel;html=1;align=center;verticalAlign=middle;resizable=0;points=[];fontSize=12;" parent="ej3CaOeuSr0K_tqCnYNM-29" vertex="1" connectable="0">
          <mxGeometry x="-0.1615" y="1" relative="1" as="geometry">
            <mxPoint as="offset" />
          </mxGeometry>
        </mxCell>
        <mxCell id="ej3CaOeuSr0K_tqCnYNM-58" value="IF ADD" style="edgeStyle=none;curved=1;rounded=0;orthogonalLoop=1;jettySize=auto;html=1;exitX=0.5;exitY=1;exitDx=0;exitDy=0;entryX=0.5;entryY=0;entryDx=0;entryDy=0;fontSize=12;startSize=8;endSize=8;" parent="1" source="ej3CaOeuSr0K_tqCnYNM-31" target="ej3CaOeuSr0K_tqCnYNM-57" edge="1">
          <mxGeometry y="-7" relative="1" as="geometry">
            <mxPoint as="offset" />
          </mxGeometry>
        </mxCell>
        <mxCell id="ej3CaOeuSr0K_tqCnYNM-31" value="PARSE&lt;div&gt;LINE&lt;/div&gt;" style="rhombus;whiteSpace=wrap;html=1;rounded=1;absoluteArcSize=1;arcSize=14;strokeWidth=2;" parent="1" vertex="1">
          <mxGeometry x="690" y="990" width="80" height="80" as="geometry" />
        </mxCell>
        <mxCell id="ej3CaOeuSr0K_tqCnYNM-32" value="" style="edgeStyle=none;curved=1;rounded=0;orthogonalLoop=1;jettySize=auto;html=1;fontSize=12;startSize=8;endSize=8;entryX=0.5;entryY=0;entryDx=0;entryDy=0;" parent="1" source="ej3CaOeuSr0K_tqCnYNM-33" target="TbW7v7ZcEK5JP2u3PYIR-6" edge="1">
          <mxGeometry relative="1" as="geometry">
            <mxPoint x="580" y="1270" as="targetPoint" />
          </mxGeometry>
        </mxCell>
        <mxCell id="ej3CaOeuSr0K_tqCnYNM-33" value="SEARCH" style="whiteSpace=wrap;html=1;rounded=1;absoluteArcSize=1;arcSize=14;strokeWidth=2;" parent="1" vertex="1">
          <mxGeometry x="540" y="1120" width="80" height="80" as="geometry" />
        </mxCell>
        <mxCell id="ej3CaOeuSr0K_tqCnYNM-34" value="EXIT" style="whiteSpace=wrap;html=1;rounded=1;absoluteArcSize=1;arcSize=14;strokeWidth=2;" parent="1" vertex="1">
          <mxGeometry x="840" y="1120" width="80" height="80" as="geometry" />
        </mxCell>
        <mxCell id="ej3CaOeuSr0K_tqCnYNM-46" style="edgeStyle=none;curved=1;rounded=0;orthogonalLoop=1;jettySize=auto;html=1;entryX=0;entryY=0.5;entryDx=0;entryDy=0;fontSize=12;startSize=8;endSize=8;" parent="1" source="ej3CaOeuSr0K_tqCnYNM-47" target="ej3CaOeuSr0K_tqCnYNM-24" edge="1">
          <mxGeometry relative="1" as="geometry">
            <Array as="points">
              <mxPoint x="540" y="918" />
            </Array>
          </mxGeometry>
        </mxCell>
        <mxCell id="ej3CaOeuSr0K_tqCnYNM-47" value="PRINT&lt;div&gt;ERROR&lt;/div&gt;&lt;div&gt;MESSAGE&lt;/div&gt;" style="whiteSpace=wrap;html=1;rounded=1;absoluteArcSize=1;arcSize=14;strokeWidth=2;" parent="1" vertex="1">
          <mxGeometry x="500" y="990" width="80" height="80" as="geometry" />
        </mxCell>
        <mxCell id="ej3CaOeuSr0K_tqCnYNM-51" style="edgeStyle=none;curved=1;rounded=0;orthogonalLoop=1;jettySize=auto;html=1;entryX=0.5;entryY=0;entryDx=0;entryDy=0;fontSize=12;startSize=8;endSize=8;" parent="1" source="ej3CaOeuSr0K_tqCnYNM-55" target="ej3CaOeuSr0K_tqCnYNM-6" edge="1">
          <mxGeometry relative="1" as="geometry" />
        </mxCell>
        <mxCell id="ej3CaOeuSr0K_tqCnYNM-52" value="IF SUCCEDED" style="edgeLabel;html=1;align=center;verticalAlign=middle;resizable=0;points=[];fontSize=12;" parent="ej3CaOeuSr0K_tqCnYNM-51" vertex="1" connectable="0">
          <mxGeometry x="-0.2252" y="-4" relative="1" as="geometry">
            <mxPoint as="offset" />
          </mxGeometry>
        </mxCell>
        <mxCell id="ej3CaOeuSr0K_tqCnYNM-53" value="" style="edgeStyle=none;curved=1;rounded=0;orthogonalLoop=1;jettySize=auto;html=1;fontSize=12;startSize=8;endSize=8;entryX=1;entryY=0.5;entryDx=0;entryDy=0;" parent="1" source="ej3CaOeuSr0K_tqCnYNM-55" target="ej3CaOeuSr0K_tqCnYNM-56" edge="1">
          <mxGeometry relative="1" as="geometry">
            <mxPoint x="590" y="560" as="targetPoint" />
          </mxGeometry>
        </mxCell>
        <mxCell id="ej3CaOeuSr0K_tqCnYNM-54" value="IF FAILED" style="edgeLabel;html=1;align=center;verticalAlign=middle;resizable=0;points=[];fontSize=12;" parent="ej3CaOeuSr0K_tqCnYNM-53" vertex="1" connectable="0">
          <mxGeometry x="0.1033" relative="1" as="geometry">
            <mxPoint x="9" y="-10" as="offset" />
          </mxGeometry>
        </mxCell>
        <mxCell id="ej3CaOeuSr0K_tqCnYNM-55" value="OPEN&lt;div&gt;FILE&lt;/div&gt;" style="rhombus;whiteSpace=wrap;html=1;strokeWidth=2;" parent="1" vertex="1">
          <mxGeometry x="690" y="520" width="80" height="80" as="geometry" />
        </mxCell>
        <mxCell id="ej3CaOeuSr0K_tqCnYNM-56" value="EXIT" style="rounded=1;whiteSpace=wrap;html=1;absoluteArcSize=1;arcSize=14;strokeWidth=2;" parent="1" vertex="1">
          <mxGeometry x="520" y="520" width="80" height="80" as="geometry" />
        </mxCell>
        <mxCell id="ej3CaOeuSr0K_tqCnYNM-60" style="edgeStyle=none;curved=1;rounded=0;orthogonalLoop=1;jettySize=auto;html=1;exitX=0.5;exitY=1;exitDx=0;exitDy=0;fontSize=12;startSize=8;endSize=8;entryX=0.5;entryY=0;entryDx=0;entryDy=0;" parent="1" source="ej3CaOeuSr0K_tqCnYNM-57" target="TbW7v7ZcEK5JP2u3PYIR-14" edge="1">
          <mxGeometry relative="1" as="geometry">
            <mxPoint x="680" y="1270" as="targetPoint" />
          </mxGeometry>
        </mxCell>
        <mxCell id="ej3CaOeuSr0K_tqCnYNM-57" value="ADD" style="whiteSpace=wrap;html=1;rounded=1;absoluteArcSize=1;arcSize=14;strokeWidth=2;" parent="1" vertex="1">
          <mxGeometry x="640" y="1120" width="80" height="80" as="geometry" />
        </mxCell>
        <mxCell id="TbW7v7ZcEK5JP2u3PYIR-16" style="edgeStyle=orthogonalEdgeStyle;rounded=0;orthogonalLoop=1;jettySize=auto;html=1;entryX=0.5;entryY=0;entryDx=0;entryDy=0;" edge="1" parent="1" source="TbW7v7ZcEK5JP2u3PYIR-2" target="TbW7v7ZcEK5JP2u3PYIR-15">
          <mxGeometry relative="1" as="geometry" />
        </mxCell>
        <mxCell id="TbW7v7ZcEK5JP2u3PYIR-2" value="UPDATE" style="whiteSpace=wrap;html=1;rounded=1;absoluteArcSize=1;arcSize=14;strokeWidth=2;" vertex="1" parent="1">
          <mxGeometry x="740" y="1120" width="80" height="80" as="geometry" />
        </mxCell>
        <mxCell id="TbW7v7ZcEK5JP2u3PYIR-5" value="IF UPDATE" style="edgeStyle=none;curved=1;rounded=0;orthogonalLoop=1;jettySize=auto;html=1;exitX=0.5;exitY=1;exitDx=0;exitDy=0;entryX=0.5;entryY=0;entryDx=0;entryDy=0;fontSize=12;startSize=8;endSize=8;" edge="1" parent="1" source="ej3CaOeuSr0K_tqCnYNM-31" target="TbW7v7ZcEK5JP2u3PYIR-2">
          <mxGeometry y="7" relative="1" as="geometry">
            <mxPoint x="770" y="1090" as="sourcePoint" />
            <mxPoint x="720" y="1140" as="targetPoint" />
            <mxPoint as="offset" />
          </mxGeometry>
        </mxCell>
        <mxCell id="TbW7v7ZcEK5JP2u3PYIR-18" style="edgeStyle=none;rounded=0;orthogonalLoop=1;jettySize=auto;html=1;" edge="1" parent="1" source="TbW7v7ZcEK5JP2u3PYIR-6">
          <mxGeometry relative="1" as="geometry">
            <mxPoint x="690" y="920" as="targetPoint" />
            <Array as="points">
              <mxPoint x="580" y="1400" />
              <mxPoint x="400" y="1400" />
              <mxPoint x="400" y="920" />
            </Array>
          </mxGeometry>
        </mxCell>
        <mxCell id="TbW7v7ZcEK5JP2u3PYIR-6" value="OUTPUT" style="whiteSpace=wrap;html=1;rounded=1;absoluteArcSize=1;arcSize=14;strokeWidth=2;" vertex="1" parent="1">
          <mxGeometry x="540" y="1270" width="80" height="80" as="geometry" />
        </mxCell>
        <mxCell id="TbW7v7ZcEK5JP2u3PYIR-19" style="edgeStyle=none;rounded=0;orthogonalLoop=1;jettySize=auto;html=1;" edge="1" parent="1" source="TbW7v7ZcEK5JP2u3PYIR-14">
          <mxGeometry relative="1" as="geometry">
            <mxPoint x="690" y="920" as="targetPoint" />
            <Array as="points">
              <mxPoint x="680" y="1400" />
              <mxPoint x="400" y="1400" />
              <mxPoint x="400" y="920" />
            </Array>
          </mxGeometry>
        </mxCell>
        <mxCell id="TbW7v7ZcEK5JP2u3PYIR-14" value="PRINT RESULT" style="whiteSpace=wrap;html=1;rounded=1;absoluteArcSize=1;arcSize=14;strokeWidth=2;" vertex="1" parent="1">
          <mxGeometry x="640" y="1270" width="80" height="80" as="geometry" />
        </mxCell>
        <mxCell id="TbW7v7ZcEK5JP2u3PYIR-20" style="edgeStyle=none;rounded=0;orthogonalLoop=1;jettySize=auto;html=1;entryX=0;entryY=0.5;entryDx=0;entryDy=0;" edge="1" parent="1" source="TbW7v7ZcEK5JP2u3PYIR-15" target="ej3CaOeuSr0K_tqCnYNM-24">
          <mxGeometry relative="1" as="geometry">
            <mxPoint x="780" y="1400" as="targetPoint" />
            <Array as="points">
              <mxPoint x="780" y="1400" />
              <mxPoint x="400" y="1400" />
              <mxPoint x="400" y="920" />
            </Array>
          </mxGeometry>
        </mxCell>
        <mxCell id="TbW7v7ZcEK5JP2u3PYIR-15" value="PRINT RESULT" style="whiteSpace=wrap;html=1;rounded=1;absoluteArcSize=1;arcSize=14;strokeWidth=2;" vertex="1" parent="1">
          <mxGeometry x="740" y="1270" width="80" height="80" as="geometry" />
        </mxCell>
        <mxCell id="TbW7v7ZcEK5JP2u3PYIR-24" value="&lt;font style=&quot;font-size: 40px;&quot;&gt;SD 04&lt;/font&gt;&lt;div&gt;&lt;font style=&quot;font-size: 40px;&quot;&gt;EX 02&lt;/font&gt;&lt;/div&gt;" style="rounded=0;whiteSpace=wrap;html=1;" vertex="1" parent="1">
          <mxGeometry x="1070" y="330.72" width="180" height="180" as="geometry" />
        </mxCell>
      </root>
    </mxGraphModel>
  </diagram>
</mxfile>
